<svg xmlns="http://www.w3.org/2000/svg" width="31.549" height="43.58" viewBox="0 0 31.549 43.58">
  <g id="Group_345" data-name="Group 345" transform="translate(0 0)">
    <path id="Path_321" data-name="Path 321" d="M22.9,8.789c.151-2.61,1.76-3.658,4.238-3.882-.223-.421-.356-.693-.505-.953A2.639,2.639,0,0,1,27.107.667a2.731,2.731,0,0,1,3.4-.14,2.588,2.588,0,0,1,.709,3.233c-.146.305-.311.6-.567,1.093,2.37.33,4.382,1.007,4.166,3.937,2.01,0,3.9,0,5.8,0,1.154,0,1.256.1,1.256,1.254,0,8.01.009,16.018-.021,24.028a2.389,2.389,0,0,1-.516,1.4q-2.095,2.534-4.317,4.959a1.929,1.929,0,0,1-1.263.577c-6.226.037-12.452.028-18.68.023-1,0-1.168-.181-1.168-1.181q0-14.952,0-29.9c0-1.03.13-1.154,1.175-1.156C19.007,8.786,20.932,8.789,22.9,8.789ZM17.351,39.568H35.476a1.733,1.733,0,0,0,.051-.249c.005-1.053.005-2.1.009-3.156.009-2.316-.282-2.263,2.2-2.242.891.007,1.784,0,2.677,0V10.249h-5.53c-.016.175-.032.289-.033.4-.035,1.489-.035,1.489-1.551,1.491q-4.25,0-8.5,0c-1.717,0-1.928.209-1.909-1.768,0-.044-.063-.089-.1-.144H17.348C17.351,20.018,17.351,29.765,17.351,39.568ZM24.33,10.682h9.126V9.757c0-2.8,0-2.8-2.624-3.533-1.454-.407-1.851-1.335-1.13-2.637.112-.2.316-.44.279-.621a3.052,3.052,0,0,0-.518-1.372,1.093,1.093,0,0,0-1.084-.067,2.58,2.58,0,0,0-.591,1.337c-.046.256.214.581.368.858a1.533,1.533,0,0,1-1.01,2.489c-.361.111-.737.172-1.1.274a2.124,2.124,0,0,0-1.707,2.056C24.3,9.235,24.33,9.931,24.33,10.682Zm12.645,27.73,2.626-3.04H36.975Z" transform="translate(-13.113 0)"/>
    <path id="Path_322" data-name="Path 322" d="M30.091,36.692H24.028a2.931,2.931,0,0,1-.956-.033c-.253-.093-.619-.4-.6-.581.03-.268.325-.533.56-.74.1-.091.339-.039.512-.039,2.281,0,4.561.014,6.84-.009.809-.009,1.167.291,1.165,1.132q-.018,17.583,0,35.168c0,.786-.309,1.086-1.1,1.084q-14.689-.024-29.379,0C.26,72.674,0,72.327,0,71.562Q.016,53.979,0,36.394c0-.786.323-1.109,1.1-1.1,2.309.019,4.619.009,6.928.005.518,0,.995.123.986.728-.009.628-.514.672-1.017.67-2.156-.009-4.314-.005-6.533-.005V71.218H30.091Z" transform="translate(0 -29.094)"/>
    <path id="Path_323" data-name="Path 323" d="M71.749,93.794A4.911,4.911,0,1,1,66.9,88.838,4.92,4.92,0,0,1,71.749,93.794Zm-1.4-.007a3.512,3.512,0,1,0-3.544,3.468A3.512,3.512,0,0,0,70.351,93.787Z" transform="translate(-51.064 -73.253)"/>
    <path id="Path_324" data-name="Path 324" d="M54.753,170.063c2.13,0,4.261.005,6.391,0,.505,0,1.007.054,1.019.672s-.472.725-.986.725q-6.523,0-13.045,0c-.516,0-1-.128-.975-.735s.526-.663,1.03-.661C50.374,170.069,52.564,170.063,54.753,170.063Z" transform="translate(-38.884 -140.226)"/>
    <path id="Path_325" data-name="Path 325" d="M70.684,188.595c-1.053,0-2.1,0-3.156,0-.5,0-.905-.137-.9-.707s.428-.693.917-.691c2.1,0,4.209-.026,6.31.032a1.179,1.179,0,0,1,.909.644c.112.605-.405.73-.926.725C72.789,188.589,71.736,188.595,70.684,188.595Z" transform="translate(-54.941 -154.354)"/>
    <path id="Path_326" data-name="Path 326" d="M81.236,106.3c.26.211.639.519,1.019.826-.381.311-.76.623-.942.772l-1.179,1.27-.972-1.182-1.053-.87,1.154-.916-.054-.018,1.021-1.1C80.522,105.434,80.815,105.789,81.236,106.3Z" transform="translate(-64.407 -86.646)"/>
  </g>
</svg>
